<svg width="32" height="33" viewBox="0 0 32 33" fill="none" xmlns="http://www.w3.org/2000/svg">
<rect x="0.5" y="0.682007" width="31" height="31" rx="3.5" stroke="#E5E8EF"/>
<path d="M16 14.6195C15.2617 14.6195 14.6875 15.2211 14.6875 15.932C14.6875 16.6703 15.2617 17.2445 16 17.2445C16.7109 17.2445 17.3125 16.6703 17.3125 15.932C17.3125 15.2211 16.7109 14.6195 16 14.6195ZM14.6875 11.7758C14.6875 12.514 15.2617 13.0883 16 13.0883C16.7109 13.0883 17.3125 12.514 17.3125 11.7758C17.3125 11.0648 16.7109 10.4633 16 10.4633C15.2617 10.4633 14.6875 11.0648 14.6875 11.7758ZM14.6875 20.0883C14.6875 20.8265 15.2617 21.4008 16 21.4008C16.7109 21.4008 17.3125 20.8265 17.3125 20.0883C17.3125 19.3773 16.7109 18.7758 16 18.7758C15.2617 18.7758 14.6875 19.3773 14.6875 20.0883Z" fill="#828282"/>
</svg>
